<svg xmlns="http://www.w3.org/2000/svg" width="256" height="256" fill="none" viewBox="0 0 256 256">
  <path d="m142.7 8.39c-2.64 13.45-0.94 27.6 5.14 37.8l46.61 29.72c5.8-23.85-7.07-51.98-30.57-63.1-7-3.32-13.87-4.53-21.18-4.42z" fill="url(#paint0_linear_234_1062)"/>
  <path d="m109.7 16.65c-6.75 23.03 5.43 50.12 29.05 62.09 12.18 5.87 24.93 6.47 33.38 4.32l22.37-7.15-84.8-59.26z" fill="url(#paint1_linear_234_1062)"/>
  <path d="m127.4 109.6c-42.34 0-77.21 34.35-79.45 73.34-3.19-3.13-6.35-4.73-10.13-4.32-11.37 0-19.57 10.29-19.57 19.91 0 10.76 8.2 20 19.95 20 6.25 0 9.75-1.76 12.56-4.62 7.45 18.07 23.19 33.73 45.89 33.73h4.17c36.14 0 69.2-14.47 89.14-47.48 6.19-10.32 4.56-39.42 4.56-39.42l-2.67-47.8c-14.1-2-33.09-3.34-64.45-3.34z" fill="url(#paint2_linear_234_1062)"/>
  <path d="m130.7 109.6h-4.46c-0.38 2.94-0.54 4.67-0.54 7.7 0 32.64 25.01 62.92 61.07 65.14 8-12.3 7.69-21.7 7.69-21.7l-1.63-47.8c-12.66-2.22-31.65-3.34-62.13-3.34z" fill="url(#paint3_linear_234_1062)"/>
  <path d="m194.5 75.91c-22.73 0-42.39 20.07-42.39 43.25 0 21.85 17.78 41.3 42.39 41.3 22.73 0 43.31-18.75 43.31-42.25 0-22.11-17.78-42.3-43.31-42.3zm5.94 44.59c-6.94 0-10.43-5.79-10.43-10.19 0-6.03 4.62-9.99 9.92-9.99 6.72 0 10.47 5.73 10.47 10.34 0 5.88-4.66 9.84-9.96 9.84z" fill="url(#paint4_linear_234_1062)"/>
  <path d="m176.2 105c-8.35 0-15.44 2.15-23.21 6.2-3.27 18.75 10.13 48.58 40.98 49.25 13.91 0.33 25.96-6.95 32.16-14.34-2.17-12.05-9.3-22.41-17.93-28.42-2.37 2.37-4.98 2.86-7.74 2.86-6.61 0-10.68-5.48-10.68-12.08-4.07-2.55-8.53-3.47-13.58-3.47z" fill="url(#paint5_linear_234_1062)"/>
  <path d="m152.1 222.9h-12.11c-9.1 14.81-22.59 23.93-39.2 24.7h75.07v-0.57c0-13.27-10.64-24.13-23.76-24.13z" fill="url(#paint6_linear_234_1062)"/>
  <path d="m97.53 147.7c-27.3 0-49.62 22.51-49.62 49.99 0 26.51 21.08 49.91 49.62 49.91v-99.9z" fill="url(#paint7_linear_234_1062)"/>
  <path d="m97.53 147.7v99.9c27.23 0 49.77-22.95 49.77-50.43 0-26.39-21.08-49.47-49.77-49.47z" fill="url(#paint8_linear_234_1062)"/>
  <path d="m38.16 178.2c-11.12 0.91-19.95 10.23-19.95 20.32 0 10.48 8.4 20 19.95 20 6.03 0 9.75-2.02 12.56-4.69-1.91-5.19-2.81-9.7-2.81-15.89 0-5.41 0.85-10.21 2.18-16.94-3.31-2.2-6.38-2.8-11.93-2.8z" fill="url(#paint9_linear_234_1062)"/>
  <defs>
    <linearGradient id="paint0_linear_234_1062" x1="146.8" x2="184.6" y1="12.9" y2="71.98" gradientUnits="userSpaceOnUse">
      <stop stop-color="#26D192" offset="0"/>
      <stop stop-color="#0B789C" offset="1"/>
    </linearGradient>
    <linearGradient id="paint1_linear_234_1062" x1="117.4" x2="154.7" y1="24.53" y2="74.14" gradientUnits="userSpaceOnUse">
      <stop stop-color="#9BF78E" offset="0"/>
      <stop stop-color="#00CED9" offset=".998"/>
    </linearGradient>
    <linearGradient id="paint2_linear_234_1062" x1="60.41" x2="104.2" y1="123.4" y2="209.3" gradientUnits="userSpaceOnUse">
      <stop stop-color="#1ABC9C" offset="0"/>
      <stop stop-color="#0785A0" offset="1"/>
    </linearGradient>
    <linearGradient id="paint3_linear_234_1062" x1="136.5" x2="175.9" y1="112" y2="179.3" gradientUnits="userSpaceOnUse">
      <stop stop-color="#85EEA0" offset="0"/>
      <stop stop-color="#00D6D6" offset=".998"/>
    </linearGradient>
    <linearGradient id="paint4_linear_234_1062" x1="164.1" x2="221.3" y1="83.96" y2="149.5" gradientUnits="userSpaceOnUse">
      <stop stop-color="#20D6DE" offset="0"/>
      <stop stop-color="#85EEA0" offset="1"/>
    </linearGradient>
    <linearGradient id="paint5_linear_234_1062" x1="165.7" x2="201.7" y1="108.6" y2="160.2" gradientUnits="userSpaceOnUse">
      <stop stop-color="#078F8A" offset="0"/>
      <stop stop-color="#23BD91" offset="1"/>
    </linearGradient>
    <linearGradient id="paint6_linear_234_1062" x1="100.8" x2="175.8" y1="235.3" y2="235.3" gradientUnits="userSpaceOnUse">
      <stop stop-color="#076199" offset="0"/>
      <stop stop-color="#28D69A" offset="1"/>
    </linearGradient>
    <linearGradient id="paint7_linear_234_1062" x1="64.62" x2="97.53" y1="154.3" y2="247.6" gradientUnits="userSpaceOnUse">
      <stop stop-color="#18D29B" offset="0"/>
      <stop stop-color="#0B789C" offset="1"/>
    </linearGradient>
    <linearGradient id="paint8_linear_234_1062" x1="106" x2="127.9" y1="152" y2="235.2" gradientUnits="userSpaceOnUse">
      <stop stop-color="#A1FBB1" offset="0"/>
      <stop stop-color="#00D6D6" offset="1"/>
    </linearGradient>
    <linearGradient id="paint9_linear_234_1062" x1="26.9" x2="41.74" y1="183.3" y2="210.7" gradientUnits="userSpaceOnUse">
      <stop stop-color="#20D69E" offset="0"/>
      <stop stop-color="#0B789C" offset="1"/>
    </linearGradient>
  </defs>
</svg>
